<svg xmlns="http://www.w3.org/2000/svg" xmlns:xlink="http://www.w3.org/1999/xlink" id="Layer_1" x="0px" y="0px" width="84px" height="84px" viewBox="0 0 84 84" xml:space="preserve"><pattern x="-111.133" y="-13.107" width="57" height="53" patternUnits="userSpaceOnUse" id="New_Pattern_Swatch_4" viewBox="0 -53 57 53">	<g>		<polygon fill="none" points="0,0 57,0 57,-53 0,-53   "></polygon>		<polygon fill="#07C8F9" points="57,0 0,0 0,-53 57,-53   "></polygon>	</g></pattern><pattern x="-111.133" y="-13.107" width="57" height="53" patternUnits="userSpaceOnUse" id="New_Pattern_Swatch_8" viewBox="0 -53 57 53">	<g>		<polygon fill="none" points="0,0 57,0 57,-53 0,-53   "></polygon>		<polygon fill="#0D41E1" points="57,0 0,0 0,-53 57,-53   "></polygon>	</g></pattern><g>	<g>		<g>			<pattern id="SVGID_1_" xlink:href="#New_Pattern_Swatch_8" patternTransform="matrix(1 0 0 1 -656 799)">			</pattern>			<path fill="url(#SVGID_1_)" d="M68.488,70.06c-0.349,0.346-0.8,0.51-1.251,0.51c-0.473,0-0.938-0.178-1.29-0.539L42.911,46.412    L19.866,70.03c-0.349,0.361-0.816,0.539-1.283,0.539c-0.454,0-0.905-0.164-1.25-0.51c-0.719-0.691-0.732-1.827-0.036-2.536    l23.101-23.69L20.566,23.502c-0.696-0.709-0.682-1.853,0.029-2.54c0.712-0.688,1.852-0.684,2.54,0.031l19.772,20.271    l19.771-20.271c0.691-0.715,1.833-0.727,2.539-0.031c0.712,0.688,0.729,1.831,0.032,2.54L45.417,43.833l23.103,23.69    C69.212,68.232,69.199,69.368,68.488,70.06z"></path>			<pattern id="SVGID_2_" xlink:href="#New_Pattern_Swatch_8" patternTransform="matrix(1 0 0 1 -656 799)">			</pattern>			<path fill="url(#SVGID_2_)" d="M67.237,72c-0.879,0-1.7-0.347-2.31-0.976L42.911,48.451L20.89,71.024    c-1.19,1.221-3.329,1.257-4.557,0.061c-0.615-0.604-0.963-1.405-0.976-2.267c-0.009-0.861,0.317-1.676,0.921-2.294l22.13-22.691    L19.541,24.497c-0.598-0.617-0.922-1.43-0.913-2.288c0.007-0.863,0.356-1.669,0.974-2.271c1.231-1.207,3.358-1.175,4.557,0.059    l18.75,19.225l18.751-19.229c1.188-1.229,3.316-1.262,4.558-0.055c0.615,0.602,0.961,1.407,0.97,2.271    c0.016,0.858-0.313,1.671-0.916,2.288L47.411,43.833L69.54,66.524c1.236,1.269,1.215,3.319-0.053,4.556    C68.878,71.674,68.081,72,67.237,72z M42.911,44.367l24.062,24.667c0.178,0.182,0.341,0.182,0.521,0.007    c0.147-0.142,0.147-0.375,0.007-0.528l-24.076-24.68L64.23,22.506c0.091-0.088,0.108-0.192,0.108-0.262    c-0.002-0.072-0.021-0.173-0.114-0.263c-0.185-0.18-0.346-0.176-0.521,0.002L42.908,43.303L22.116,21.983    c-0.179-0.178-0.343-0.178-0.528-0.002c-0.088,0.087-0.106,0.19-0.106,0.26c0,0.072,0.017,0.177,0.105,0.268l20.8,21.324    l-24.067,24.68c-0.091,0.095-0.107,0.2-0.107,0.27c0.002,0.07,0.02,0.168,0.111,0.259c0.169,0.157,0.321,0.204,0.522-0.004    L42.911,44.367z"></path>		</g>		<g>			<pattern id="SVGID_3_" xlink:href="#New_Pattern_Swatch_4" patternTransform="matrix(1 0 0 1 -656 799)">			</pattern>			<path fill="url(#SVGID_3_)" d="M81.146,27.088c-1.576,0-2.851-1.274-2.851-2.854V5.7H59.761c-1.574,0-2.854-1.276-2.854-2.854    c0-1.572,1.28-2.847,2.854-2.847h21.386C82.724,0,84,1.274,84,2.847v21.388C84,25.813,82.724,27.088,81.146,27.088z"></path>		</g>	</g></g></svg>